<svg version="1.1" id="Layer_1" xmlns="http://www.w3.org/2000/svg" xmlns:xlink="http://www.w3.org/1999/xlink" x="0px" y="0px"
	 width="100%" viewBox="0 0 1024 1024" enable-background="new 0 0 1024 1024" xml:space="preserve">
<path fill="#000000" opacity="1.000000" stroke="none" 
	d="
M525.781616,258.117615 
	C565.243530,278.933746 597.665283,307.361786 623.941589,342.860107 
	C642.334534,367.708221 656.243591,394.940552 665.632996,424.348602 
	C672.423523,445.616577 676.808350,467.395325 678.524658,489.786530 
	C681.555786,529.332825 677.257385,567.868408 664.497131,605.408936 
	C650.162109,647.582153 627.362732,684.646118 595.974976,716.216980 
	C565.107361,747.264648 528.993225,770.143372 487.675415,785.033203 
	C450.718689,798.351501 412.673523,803.168152 373.716675,801.012878 
	C324.332611,798.280945 278.705414,783.368713 236.930481,756.832642 
	C195.743866,730.670349 163.279922,696.219543 139.416504,653.695374 
	C120.859314,620.626892 109.387634,585.216492 104.751068,547.570618 
	C101.534950,521.458008 101.918098,495.373016 106.054558,469.446869 
	C114.421501,417.005341 135.202194,370.065674 169.212204,329.074371 
	C201.975784,289.585358 242.462524,260.937683 290.350861,242.850479 
	C315.852783,233.218521 342.267853,227.395554 369.585724,225.621613 
	C404.145813,223.377380 438.132202,226.257233 471.396454,236.032898 
	C490.118103,241.534790 508.302063,248.501526 525.781616,258.117615 
M502.666718,753.165771 
	C506.711761,751.196777 510.847717,749.393616 514.788147,747.233826 
	C574.807312,714.336548 617.251709,666.094727 640.696106,601.674011 
	C654.945496,562.519409 658.813171,522.040222 653.861267,480.694702 
	C649.830322,447.038910 639.646606,415.313202 623.257690,385.697998 
	C600.942139,345.373413 570.083008,312.995941 531.038330,288.476746 
	C500.727264,269.442047 467.772278,257.156860 432.513062,251.581299 
	C402.700134,246.866959 372.822937,247.269714 343.016998,252.878723 
	C288.807739,263.080017 242.344025,287.900909 203.409454,326.699493 
	C176.992203,353.024506 157.139023,383.797455 143.842377,418.730591 
	C127.700554,461.138733 122.247948,504.924652 128.740891,549.767151 
	C136.902023,606.130737 160.702316,655.287231 200.283508,696.429749 
	C238.585739,736.242859 285.012817,761.689514 339.102356,772.787903 
	C366.845154,778.480347 394.872681,779.332031 423.060791,775.886597 
	C450.573334,772.523682 476.838013,765.026489 502.666718,753.165771 
z"/>
<path fill="#000000" opacity="1.000000" stroke="none" 
	d="
M914.959534,557.839783 
	C884.135498,590.621948 853.579102,623.156860 822.964417,655.636841 
	C812.621460,666.609985 803.105591,666.509094 792.724487,655.476013 
	C762.475952,623.327209 732.251038,591.156311 701.991760,559.017578 
	C697.848450,554.616943 695.194336,549.914673 697.935059,543.733643 
	C700.597839,537.728210 705.550720,535.860107 711.717712,535.862671 
	C775.857971,535.889465 839.998230,535.862549 904.138489,535.885132 
	C912.138062,535.887939 916.562073,539.044861 918.557373,545.640137 
	C919.994080,550.388855 917.930115,554.047485 914.959534,557.839783 
z"/>
<path fill="#000000" opacity="1.000000" stroke="none" 
	d="
M862.829834,442.814697 
	C848.911865,457.629639 835.206482,472.163483 821.569580,486.761322 
	C813.546692,495.349579 802.389832,495.312988 793.986389,486.397858 
	C774.800720,466.043854 755.682129,445.626556 736.530151,425.240753 
	C724.902039,412.863495 713.235107,400.522522 701.645081,388.109772 
	C698.241028,384.464142 695.795593,380.389038 697.309814,375.042816 
	C698.893188,369.452026 703.063782,366.044708 708.873230,365.730743 
	C710.699951,365.632050 712.535950,365.697266 714.367676,365.697174 
	C777.481506,365.694641 840.595337,365.699341 903.709167,365.675568 
	C907.249878,365.674225 910.668701,365.790558 913.702026,368.023102 
	C919.864929,372.558929 920.924683,380.096100 915.560059,386.351227 
	C909.279907,393.673950 902.525696,400.592438 895.924316,407.636810 
	C884.995544,419.298859 874.024475,430.921326 862.829834,442.814697 
z"/>
<path fill="#000000" opacity="1.000000" stroke="none" 
	d="
M442.027344,276.753174 
	C447.563416,278.267181 452.668304,279.776306 457.809937,281.147461 
	C461.119141,282.029968 462.682648,284.124817 463.291290,287.439087 
	C468.935791,318.174988 474.659393,348.896301 480.362946,379.621368 
	C483.093475,394.330750 485.832214,409.038635 488.560211,423.748505 
	C488.764771,424.851379 489.409607,425.987579 487.634857,427.902466 
	C421.893311,383.423706 356.015594,338.852814 290.283508,294.380432 
	C291.302673,291.519684 293.278839,291.233093 294.913422,290.603363 
	C328.147736,277.799805 362.465668,270.487396 398.192657,270.903687 
	C412.857574,271.074554 427.313690,273.442780 442.027344,276.753174 
z"/>
<path fill="#000000" opacity="1.000000" stroke="none" 
	d="
M416.045654,665.984375 
	C405.184082,658.428284 394.613647,651.080688 384.043213,643.733093 
	C384.164154,643.124512 384.285095,642.515991 384.406067,641.907410 
	C462.430420,627.150330 540.454773,612.393188 618.479126,597.636108 
	C618.884827,598.148071 619.290527,598.659973 619.696289,599.171936 
	C616.967529,605.129761 614.412598,611.174622 611.480469,617.030640 
	C597.569092,644.813965 579.897766,669.926697 557.216187,691.249573 
	C542.847839,704.757263 526.992004,716.319458 509.197876,725.089417 
	C505.961182,726.684631 503.536560,726.644226 500.521606,724.542236 
	C472.513672,705.015442 444.411560,685.623718 416.045654,665.984375 
z"/>
<path fill="#000000" opacity="1.000000" stroke="none" 
	d="
M364.526733,359.455688 
	C375.334015,366.931641 385.847137,374.200073 396.440033,381.523621 
	C393.344177,384.526398 167.735519,427.669891 160.968765,426.499359 
	C163.491501,420.798431 165.733200,415.178680 168.410675,409.774811 
	C182.427811,381.484711 200.327133,355.958221 223.377670,334.274200 
	C237.745712,320.757904 253.540451,309.155243 271.391937,300.503143 
	C274.542999,298.975891 277.043396,298.751709 280.119568,300.898743 
	C308.101166,320.428833 336.181244,339.817841 364.526733,359.455688 
z"/>
<path fill="#000000" opacity="1.000000" stroke="none" 
	d="
M182.037354,614.053467 
	C203.638580,582.799133 225.040787,551.844055 246.437332,520.885071 
	C249.561707,516.364258 252.622940,511.799255 255.789963,507.308716 
	C256.798859,505.878174 257.384674,503.932159 260.718658,503.390381 
	C275.487976,581.445862 290.254425,659.486023 304.955261,737.179688 
	C302.951569,739.042053 301.626038,737.906738 300.328339,737.339355 
	C262.709625,720.891357 229.578812,698.204834 203.043884,666.580872 
	C193.615417,655.344177 185.493454,643.168030 178.608765,630.129089 
	C175.942474,625.079346 175.974548,621.206055 179.748444,617.153137 
	C180.537415,616.305847 181.145218,615.289795 182.037354,614.053467 
z"/>
<path fill="#000000" opacity="1.000000" stroke="none" 
	d="
M626.622009,450.461609 
	C633.890686,477.585968 636.821533,504.723175 634.587402,532.367432 
	C633.283142,548.506958 630.796448,564.387268 625.331299,579.728882 
	C624.174683,582.975525 622.396057,584.597717 619.093811,585.202393 
	C586.056519,591.251892 552.996948,597.190735 520.024658,603.578674 
	C509.092010,605.696777 498.159119,607.809387 487.201752,609.795471 
	C484.790161,610.232544 482.356934,610.550537 479.234253,610.219849 
	C523.056458,543.779175 567.600708,478.015991 613.102966,411.131409 
	C619.308533,424.454010 623.216187,437.150085 626.622009,450.461609 
z"/>
<path fill="#000000" opacity="1.000000" stroke="none" 
	d="
M296.404053,625.452698 
	C294.702789,616.288208 293.104004,607.531128 291.505219,598.774109 
	C292.028290,598.389587 292.551392,598.005066 293.074463,597.620544 
	C358.863800,642.131714 424.653168,686.642883 490.185059,730.979797 
	C490.023804,733.291077 488.702118,733.708923 487.462646,734.191040 
	C462.048920,744.075195 435.929138,750.907349 408.673889,753.403625 
	C388.122711,755.285828 367.715302,754.462402 347.500977,750.815308 
	C338.882721,749.260437 330.244812,747.162781 321.959625,744.027222 
	C319.378601,743.050476 318.068756,741.475281 317.557129,738.620972 
	C314.331573,720.625793 310.911926,702.665344 307.545898,684.695435 
	C303.872040,665.082581 300.186798,645.471802 296.404053,625.452698 
z"/>
<path fill="#000000" opacity="1.000000" stroke="none" 
	d="
M508.741333,463.042419 
	C503.222076,433.880829 497.683167,405.161713 492.282349,376.416656 
	C487.650055,351.762115 483.188843,327.075470 478.616699,302.409546 
	C477.981689,298.983673 477.113129,295.601715 476.414551,292.186737 
	C476.092773,290.613708 475.345398,288.960419 477.170563,287.097351 
	C483.989136,289.104218 490.409882,292.626831 496.832458,295.930786 
	C527.640137,311.779022 555.147766,331.992371 577.458984,358.730591 
	C587.499207,370.763062 596.418091,383.612305 603.217102,397.836151 
	C604.600769,400.730865 604.428284,402.974091 602.569336,405.652435 
	C576.468262,443.259186 550.466980,480.935211 524.417175,518.577576 
	C523.522156,519.870972 522.940796,521.637573 519.993286,521.778259 
	C516.267273,502.401581 512.524414,482.937622 508.741333,463.042419 
z"/>
<path fill="#000000" opacity="1.000000" stroke="none" 
	d="
M292.652954,429.621490 
	C251.104218,490.979523 209.763824,552.043762 168.512497,612.976440 
	C165.355209,612.243713 165.394318,609.900208 164.738617,608.174377 
	C155.417221,583.639709 148.657349,558.511658 146.505432,532.223022 
	C144.118210,503.059448 145.859558,474.390381 155.035309,446.381104 
	C156.371887,442.301117 158.710388,440.571655 162.708267,439.840302 
	C192.175903,434.449738 221.621811,428.940063 251.072281,423.455750 
	C266.280334,420.623718 281.481293,417.753479 296.693359,414.943054 
	C298.128357,414.677917 299.637665,414.263458 302.031097,415.582794 
	C298.951691,420.198639 295.906525,424.763184 292.652954,429.621490 
z"/>
</svg>