<svg version="1.1" id="Layer_1" xmlns="http://www.w3.org/2000/svg" xmlns:xlink="http://www.w3.org/1999/xlink" x="0px" y="0px"
	 width="100%" viewBox="0 0 512 512" enable-background="new 0 0 512 512" xml:space="preserve">
<path fill="#000000" opacity="1.000000" stroke="none" 
	d="
M241.468658,513.000000 
	C239.107254,510.691071 236.145233,511.111969 233.708145,510.253296 
	C207.403290,500.984802 190.947998,482.675018 183.680527,455.952759 
	C182.710144,452.384674 181.184753,450.312714 177.600021,448.510437 
	C161.403305,440.367126 151.743835,427.461273 151.710541,408.745148 
	C151.685394,394.608215 152.105301,380.419037 150.514679,366.391479 
	C147.859268,342.973480 139.393341,321.730835 123.721443,303.816925 
	C100.031685,276.738098 83.985947,246.007294 78.630241,210.175674 
	C73.098114,173.163742 77.045425,137.236725 93.053307,103.224968 
	C100.832947,86.695686 110.819153,71.421661 123.701775,58.132992 
	C138.740036,42.620724 155.202774,29.256153 174.633530,19.486517 
	C194.150574,9.673502 214.646774,3.675166 236.643402,1.154903 
	C252.020889,1.000000 267.041779,1.000000 282.531342,1.000000 
	C288.314392,3.930113 294.408295,3.912420 300.107910,5.303376 
	C326.357330,11.709393 350.027405,23.307718 370.996765,40.171818 
	C395.553375,59.920864 413.401459,84.751038 425.295807,113.951981 
	C436.114868,140.513153 439.305389,168.294174 437.119171,196.490753 
	C434.292755,232.944366 420.995422,265.678314 397.860809,294.148743 
	C385.237305,309.683685 373.454285,325.650696 367.861053,345.247345 
	C365.361267,354.005493 363.846985,362.894348 363.150116,372.070557 
	C362.113953,385.713684 363.380707,399.394348 362.148224,412.933746 
	C360.610931,429.821838 350.934387,441.689392 335.749023,448.823975 
	C332.789429,450.214539 331.388245,451.809845 330.692017,454.750977 
	C327.162537,469.660461 320.023590,482.573059 308.900330,493.167511 
	C299.729584,501.902130 288.927887,507.826935 276.781250,511.348083 
	C275.678925,511.667603 274.624878,512.153503 273.274231,512.781128 
	C262.645782,513.000000 252.291550,513.000000 241.468658,513.000000 
M198.504059,361.649902 
	C240.988846,361.650665 283.473877,361.587372 325.958069,361.743256 
	C330.619995,361.760345 332.122559,360.295532 332.824036,355.649200 
	C336.800598,329.309937 347.401001,305.580811 364.044250,284.991333 
	C375.787537,270.463684 386.963654,255.830185 394.228973,238.488037 
	C400.366608,223.837677 404.491364,208.601990 405.485138,192.824768 
	C406.689392,173.706131 404.900726,154.874649 399.028778,136.311478 
	C391.694031,113.123978 379.393402,93.106346 362.597931,75.993385 
	C349.525360,62.673740 334.027008,52.419796 316.794128,44.819328 
	C290.412292,33.183765 262.919434,29.824389 234.580994,33.581829 
	C210.471573,36.778530 188.659561,46.081909 168.984833,60.420895 
	C153.493484,71.711037 140.775284,85.545265 130.557648,101.721077 
	C118.673584,120.535034 111.494499,140.941620 109.166649,163.135345 
	C106.704407,186.610260 108.950958,209.418716 116.921448,231.721924 
	C123.910957,251.280151 135.491425,267.898712 148.696899,283.601501 
	C166.543671,304.823273 177.403824,329.221100 181.253967,356.662994 
	C181.791153,360.491791 183.300995,361.893036 187.013336,361.686615 
	C190.501190,361.492706 194.008484,361.647797 198.504059,361.649902 
M325.297638,417.791016 
	C331.518188,413.050842 331.568115,406.166595 331.632050,399.334076 
	C331.697144,392.374695 331.636749,392.368317 324.858185,392.367859 
	C280.539673,392.364838 236.221146,392.337646 191.902679,392.382568 
	C181.045685,392.393555 182.364594,390.990143 182.380569,401.957123 
	C182.399734,415.118286 188.830566,421.599976 201.948700,421.624054 
	C238.602982,421.691376 275.257538,421.688660 311.911743,421.605621 
	C316.379242,421.595520 320.897339,421.116821 325.297638,417.791016 
M263.792480,481.484161 
	C279.694885,477.599670 291.225189,468.683685 297.680756,452.906433 
	C270.099060,452.906433 243.457047,452.906433 216.355438,452.906433 
	C217.252441,455.070740 217.826904,456.618958 218.532776,458.104736 
	C219.028976,459.149170 219.632462,460.160339 220.309921,461.098297 
	C230.804977,475.628632 244.531876,483.463104 263.792480,481.484161 
z"/>
<path fill="#000000" opacity="1.000000" stroke="none" 
	d="
M513.000000,202.535355 
	C509.110657,209.530502 503.433289,211.872147 495.847931,211.489960 
	C486.064819,210.997025 476.237946,211.417786 466.430725,211.343002 
	C457.740784,211.276749 452.634155,205.353317 452.661560,195.555511 
	C452.687134,186.414688 457.832092,180.728180 466.261261,180.678421 
	C476.401184,180.618561 486.554230,180.966461 496.677643,180.552399 
	C503.702698,180.265060 508.946411,182.475906 512.748779,188.777191 
	C513.000000,193.356903 513.000000,197.713806 513.000000,202.535355 
z"/>
<path fill="#000000" opacity="1.000000" stroke="none" 
	d="
M1.000000,189.464645 
	C5.303814,181.945114 11.668304,180.046417 19.655293,180.530807 
	C28.760971,181.083084 37.925983,180.631836 47.065022,180.666321 
	C56.285435,180.701126 61.342213,186.117722 61.347900,195.882355 
	C61.353542,205.568634 56.171494,211.304184 47.264439,211.351257 
	C37.460854,211.403091 27.640661,211.029770 17.858364,211.491394 
	C10.657385,211.831177 5.276586,209.544983 1.237130,203.237961 
	C1.000000,198.643097 1.000000,194.286194 1.000000,189.464645 
z"/>
<path fill="#000000" opacity="1.000000" stroke="none" 
	d="
M490.039520,122.046204 
	C485.055786,126.946030 480.574371,132.014816 473.221375,132.333282 
	C466.889252,132.607559 461.808258,130.292236 458.669464,124.683105 
	C455.592804,119.184937 455.271393,113.105156 459.057831,108.177284 
	C466.658813,98.284950 475.349365,89.238724 485.491486,81.912819 
	C491.362762,77.671860 500.576172,79.165802 505.240479,84.040680 
	C509.917267,88.928619 510.806335,97.246101 507.130371,103.475311 
	C502.829102,110.764168 495.805023,115.596169 490.039520,122.046204 
z"/>
<path fill="#000000" opacity="1.000000" stroke="none" 
	d="
M489.546112,269.439880 
	C494.916351,274.911682 500.495789,279.768127 505.061401,285.440552 
	C511.179901,293.042297 510.930298,302.519775 504.942657,308.038940 
	C500.009613,312.586121 491.374481,315.769470 482.363800,307.947693 
	C474.227753,300.885132 466.240967,293.486572 459.803070,284.743378 
	C454.997375,278.216797 455.639374,269.384918 460.774536,264.166748 
	C466.024597,258.831818 474.576935,258.124603 481.382202,262.398010 
	C484.368530,264.273254 486.945770,266.595184 489.546112,269.439880 
z"/>
<path fill="#000000" opacity="1.000000" stroke="none" 
	d="
M5.492323,100.888016 
	C3.539898,92.373611 5.371217,86.273621 10.682351,82.704956 
	C17.351809,78.223618 23.753353,77.882225 30.508833,83.186470 
	C39.390598,90.160210 47.514347,98.130898 54.274406,107.211884 
	C59.233284,113.873306 58.376701,123.344749 52.912560,128.213730 
	C47.683659,132.873093 38.437298,134.745789 31.886873,129.000824 
	C22.286913,120.581284 12.450085,112.354698 5.492323,100.888016 
z"/>
<path fill="#000000" opacity="1.000000" stroke="none" 
	d="
M7.950922,306.902161 
	C2.852017,298.581757 3.554690,290.773621 10.116544,283.874268 
	C16.197285,277.480713 22.412634,271.207642 28.745325,265.063568 
	C34.370907,259.605530 42.893723,258.073639 48.981289,261.080231 
	C54.758640,263.933594 57.767555,269.914124 57.371208,277.288635 
	C57.238201,279.763397 56.273067,281.891418 54.921440,283.714172 
	C47.861355,293.235046 39.571690,301.685242 30.176313,308.811279 
	C22.457508,314.665710 15.617432,313.699768 7.950922,306.902161 
z"/>
<path fill="#000000" opacity="1.000000" stroke="none" 
	d="
M326.684021,82.292236 
	C354.080048,101.479691 369.560577,127.879662 376.156647,159.865555 
	C377.810547,167.885574 377.542755,176.085358 377.284454,184.223297 
	C377.089417,190.368240 371.050690,195.885071 364.887390,196.369476 
	C351.039215,197.457916 346.189941,190.577606 345.792877,178.062271 
	C345.061249,155.003677 336.473907,135.313354 320.724274,119.014488 
	C307.150360,104.967194 290.433380,96.174355 270.787506,93.173714 
	C265.193268,92.319260 259.575256,92.560829 253.984741,91.491920 
	C245.423111,89.854935 241.127792,83.994591 241.669861,73.093674 
	C242.030716,65.836884 247.826340,60.999432 255.774460,60.611824 
	C280.609497,59.400700 302.807220,67.283241 323.694885,79.865181 
	C324.681335,80.459381 325.496185,81.338570 326.684021,82.292236 
z"/>
</svg>