<svg version="1.1" id="Layer_1" xmlns="http://www.w3.org/2000/svg" xmlns:xlink="http://www.w3.org/1999/xlink" x="0px" y="0px"
	 width="100%" viewBox="0 0 512 512" enable-background="new 0 0 512 512" xml:space="preserve">
<path fill="#000000" opacity="1.000000" stroke="none" 
	d="
M1.000006,414.000000 
	C1.000000,332.979095 1.000000,251.958206 1.366331,170.368408 
	C2.166195,168.457504 2.555938,167.099487 3.039737,165.775864 
	C12.311476,140.409485 33.424171,123.456505 60.830669,123.047089 
	C77.818054,122.793320 94.813988,122.879639 111.801933,123.113876 
	C114.767265,123.154762 116.260597,121.883553 117.573616,119.849945 
	C122.804527,111.748230 127.591309,103.330406 133.239426,95.534523 
	C140.992554,84.833160 146.602737,72.439034 157.928619,64.478203 
	C168.469208,57.069347 179.802307,52.068668 192.828705,52.036961 
	C233.973770,51.936794 275.119293,51.966576 316.264435,52.044125 
	C321.170227,52.053375 326.188934,52.117153 330.958344,53.105820 
	C344.473633,55.907459 356.794708,61.966934 365.069336,72.958092 
	C376.190796,87.730690 385.807495,103.639626 395.976440,119.122314 
	C397.663666,121.691223 399.268127,123.116859 402.786316,123.128578 
	C422.522614,123.194328 442.334808,122.698700 461.971313,124.268524 
	C481.787170,125.852692 496.024384,137.655289 505.674133,154.558609 
	C509.064575,160.497589 510.611359,167.489105 513.000000,174.000000 
	C513.000000,253.020889 513.000000,332.041779 512.620728,411.660034 
	C509.870636,426.269714 503.017548,437.769379 492.407379,447.040955 
	C482.139679,456.013214 470.266754,461.895630 456.501831,461.911224 
	C325.390564,462.059998 194.279037,461.975922 63.167656,462.057343 
	C54.926365,462.062469 46.985981,461.188934 39.338436,458.005280 
	C25.975794,452.442444 15.403128,443.640900 8.497168,430.868530 
	C5.579355,425.472076 3.474429,419.636169 1.000006,414.000000 
M393.003510,256.401550 
	C392.632843,253.162277 392.574249,249.850388 391.840240,246.695663 
	C387.470184,227.913742 380.427521,210.207413 368.884430,194.652374 
	C355.101959,176.079651 338.269165,161.046509 317.149292,150.940186 
	C292.907654,139.340027 267.695251,134.729736 240.934341,137.916504 
	C225.571869,139.745911 210.895538,143.806686 197.098969,150.540833 
	C178.191330,159.769714 162.178848,172.678207 149.019455,189.328751 
	C129.432953,214.111481 119.891922,242.439713 119.431129,273.581024 
	C119.194923,289.543915 122.334129,305.320465 127.864624,320.628143 
	C136.289490,343.947113 150.315155,363.331146 168.901627,379.086121 
	C190.677505,397.544678 216.454346,408.103546 244.878860,410.805267 
	C262.204590,412.452118 279.523773,410.627258 296.305328,405.300690 
	C319.826019,397.835114 340.190033,385.489777 357.205231,367.431793 
	C370.748352,353.058685 380.531647,336.641663 387.067261,318.082825 
	C392.022583,304.011566 394.052155,289.461090 394.588074,274.700378 
	C394.797516,268.931671 393.601929,263.111938 393.003510,256.401550 
M404.862640,183.694794 
	C398.108551,196.197769 409.485199,210.183060 421.686523,209.122650 
	C429.283600,208.462418 437.035400,209.518539 444.617584,208.778427 
	C448.338501,208.415237 452.711426,206.555557 455.242645,203.899292 
	C460.352631,198.536774 461.944580,191.383759 458.668335,184.542480 
	C455.283081,177.473648 449.031219,173.873001 440.912292,173.981827 
	C434.257446,174.071030 427.594543,173.825119 420.946045,174.048950 
	C414.239716,174.274734 408.763672,176.981888 404.862640,183.694794 
z"/>
<path fill="#FFFFFF" opacity="1.000000" stroke="none" 
	d="
M513.000000,173.531342 
	C510.611359,167.489105 509.064575,160.497589 505.674133,154.558609 
	C496.024384,137.655289 481.787170,125.852692 461.971313,124.268524 
	C442.334808,122.698700 422.522614,123.194328 402.786316,123.128578 
	C399.268127,123.116859 397.663666,121.691223 395.976440,119.122314 
	C385.807495,103.639626 376.190796,87.730690 365.069336,72.958092 
	C356.794708,61.966934 344.473633,55.907459 330.958344,53.105820 
	C326.188934,52.117153 321.170227,52.053375 316.264435,52.044125 
	C275.119293,51.966576 233.973770,51.936794 192.828705,52.036961 
	C179.802307,52.068668 168.469208,57.069347 157.928619,64.478203 
	C146.602737,72.439034 140.992554,84.833160 133.239426,95.534523 
	C127.591309,103.330406 122.804527,111.748230 117.573616,119.849945 
	C116.260597,121.883553 114.767265,123.154762 111.801933,123.113876 
	C94.813988,122.879639 77.818054,122.793320 60.830669,123.047089 
	C33.424171,123.456505 12.311476,140.409485 3.039737,165.775864 
	C2.555938,167.099487 2.166195,168.457504 1.366331,169.899750 
	C1.000000,113.695518 1.000000,57.391041 1.000000,1.043279 
	C171.550385,1.043279 342.100800,1.043279 513.000000,1.043279 
	C513.000000,58.353756 513.000000,115.708221 513.000000,173.531342 
z"/>
<path fill="#FFFFFF" opacity="1.000000" stroke="none" 
	d="
M1.000006,414.468658 
	C3.474429,419.636169 5.579355,425.472076 8.497168,430.868530 
	C15.403128,443.640900 25.975794,452.442444 39.338436,458.005280 
	C46.985981,461.188934 54.926365,462.062469 63.167656,462.057343 
	C194.279037,461.975922 325.390564,462.059998 456.501831,461.911224 
	C470.266754,461.895630 482.139679,456.013214 492.407379,447.040955 
	C503.017548,437.769379 509.870636,426.269714 512.620728,412.128662 
	C513.000000,445.645966 513.000000,479.291962 513.000000,512.938232 
	C342.333313,512.938599 171.666656,512.938599 1.000000,512.938599 
	C1.000000,480.230621 1.000000,447.583954 1.000006,414.468658 
z"/>
<path fill="#FFFFFF" opacity="1.000000" stroke="none" 
	d="
M393.024872,256.858521 
	C393.601929,263.111938 394.797516,268.931671 394.588074,274.700378 
	C394.052155,289.461090 392.022583,304.011566 387.067261,318.082825 
	C380.531647,336.641663 370.748352,353.058685 357.205231,367.431793 
	C340.190033,385.489777 319.826019,397.835114 296.305328,405.300690 
	C279.523773,410.627258 262.204590,412.452118 244.878860,410.805267 
	C216.454346,408.103546 190.677505,397.544678 168.901627,379.086121 
	C150.315155,363.331146 136.289490,343.947113 127.864624,320.628143 
	C122.334129,305.320465 119.194923,289.543915 119.431129,273.581024 
	C119.891922,242.439713 129.432953,214.111481 149.019455,189.328751 
	C162.178848,172.678207 178.191330,159.769714 197.098969,150.540833 
	C210.895538,143.806686 225.571869,139.745911 240.934341,137.916504 
	C267.695251,134.729736 292.907654,139.340027 317.149292,150.940186 
	C338.269165,161.046509 355.101959,176.079651 368.884430,194.652374 
	C380.427521,210.207413 387.470184,227.913742 391.840240,246.695663 
	C392.574249,249.850388 392.632843,253.162277 393.024872,256.858521 
M329.043610,246.398682 
	C329.021210,245.899643 329.141785,245.338562 328.955933,244.910492 
	C320.231110,224.813263 305.928345,210.298096 285.481415,202.220718 
	C271.362396,196.643127 256.507660,195.090088 241.791931,198.290054 
	C225.136551,201.911804 210.800430,210.085098 199.172745,223.147614 
	C181.793091,242.671814 176.449524,265.542999 181.406128,290.257935 
	C186.383835,315.078003 201.239487,333.392761 224.683609,343.933136 
	C242.828339,352.090973 261.412720,353.393372 280.542877,347.169800 
	C294.258240,342.707764 305.648102,335.161407 315.212433,324.395477 
	C326.345795,311.863342 332.338135,297.175171 333.879486,280.760712 
	C334.953888,269.318848 333.844482,257.909973 329.043610,246.398682 
z"/>
<path fill="#FFFFFF" opacity="1.000000" stroke="none" 
	d="
M405.114868,183.392105 
	C408.763672,176.981888 414.239716,174.274734 420.946045,174.048950 
	C427.594543,173.825119 434.257446,174.071030 440.912292,173.981827 
	C449.031219,173.873001 455.283081,177.473648 458.668335,184.542480 
	C461.944580,191.383759 460.352631,198.536774 455.242645,203.899292 
	C452.711426,206.555557 448.338501,208.415237 444.617584,208.778427 
	C437.035400,209.518539 429.283600,208.462418 421.686523,209.122650 
	C409.485199,210.183060 398.108551,196.197769 405.114868,183.392105 
z"/>
<path fill="#000000" opacity="1.000000" stroke="none" 
	d="
M329.295227,246.717316 
	C333.844482,257.909973 334.953888,269.318848 333.879486,280.760712 
	C332.338135,297.175171 326.345795,311.863342 315.212433,324.395477 
	C305.648102,335.161407 294.258240,342.707764 280.542877,347.169800 
	C261.412720,353.393372 242.828339,352.090973 224.683609,343.933136 
	C201.239487,333.392761 186.383835,315.078003 181.406128,290.257935 
	C176.449524,265.542999 181.793091,242.671814 199.172745,223.147614 
	C210.800430,210.085098 225.136551,201.911804 241.791931,198.290054 
	C256.507660,195.090088 271.362396,196.643127 285.481415,202.220718 
	C305.928345,210.298096 320.231110,224.813263 328.955933,244.910492 
	C329.141785,245.338562 329.021210,245.899643 329.295227,246.717316 
z"/>
</svg>