<svg version="1.1" id="Layer_1" xmlns="http://www.w3.org/2000/svg" xmlns:xlink="http://www.w3.org/1999/xlink" x="0px" y="0px"
	 width="100%" viewBox="0 0 512 512" enable-background="new 0 0 512 512" xml:space="preserve">
<path fill="#CFD8DC" opacity="1.000000" stroke="none" 
	d="
M513.000000,241.000000 
	C513.000000,251.354233 513.000000,261.708466 512.722229,272.815002 
	C509.610291,284.951569 507.515594,296.585236 503.778564,307.664948 
	C497.235779,327.063385 485.293549,343.334534 470.785217,357.483337 
	C458.849396,369.123352 444.995270,378.240723 429.512329,384.815338 
	C413.588257,391.577301 397.038666,395.832184 379.805298,395.891846 
	C306.667572,396.145081 233.528137,396.106812 160.390060,395.909515 
	C145.639648,395.869751 130.839417,395.238556 116.158066,393.859192 
	C100.594246,392.396973 86.235138,386.398315 72.606789,378.984680 
	C58.373497,371.242004 45.987354,361.156769 35.236973,348.883667 
	C21.639906,333.360657 11.799797,315.886139 6.103116,296.137665 
	C3.918586,288.564575 2.673285,280.720551 1.000000,273.000000 
	C1.000000,262.645782 1.000000,252.291550 1.277764,241.184998 
	C4.389684,229.048447 6.484351,217.414780 10.221392,206.335068 
	C16.764214,186.936661 28.706482,170.665512 43.214817,156.516724 
	C55.150616,144.876724 69.004730,135.759277 84.487671,129.184647 
	C100.411736,122.422722 116.961327,118.167778 134.194702,118.108116 
	C207.332458,117.854927 280.471863,117.893295 353.609955,118.090614 
	C368.360352,118.130417 383.160583,118.761513 397.841919,120.140778 
	C413.405792,121.602966 427.764893,127.601639 441.393219,135.015289 
	C455.626495,142.757996 468.012665,152.843201 478.763031,165.116318 
	C492.360107,180.639343 502.200134,198.113922 507.896881,217.862381 
	C510.081421,225.435440 511.326721,233.279449 513.000000,241.000000 
M114.897697,164.279404 
	C68.914375,177.290161 39.528320,219.774445 44.110363,266.618744 
	C49.361092,320.299347 98.166840,358.840149 152.281219,352.038788 
	C207.195114,345.136993 245.350784,291.411652 233.674881,237.431976 
	C222.026550,183.579773 169.242142,150.765305 114.897697,164.279404 
M312.000153,300.500336 
	C317.943237,294.118713 320.939392,286.536713 320.979279,277.847504 
	C321.043488,263.857178 321.052216,249.866013 320.970398,235.875854 
	C320.929413,228.865952 318.906067,222.411835 314.688293,216.751266 
	C306.488342,205.746338 292.543060,201.178650 279.572052,205.188904 
	C266.283630,209.297302 257.339752,221.079727 257.067719,235.548569 
	C256.811066,249.201324 256.981354,262.862549 257.003876,276.519989 
	C257.027222,290.647583 262.918823,301.535309 275.947693,307.330353 
	C288.899780,313.091217 300.978668,310.593475 312.000153,300.500336 
M366.583710,267.791656 
	C368.582092,267.785034 370.597168,267.937103 372.574280,267.728790 
	C374.703247,267.504456 376.984680,267.338959 378.867004,266.446411 
	C382.989716,264.491486 385.032867,260.906555 384.859863,256.345306 
	C384.684875,251.730713 381.371399,247.743774 376.681183,246.920761 
	C372.521088,246.190765 368.244446,246.124847 364.071777,245.770248 
	C364.071777,238.709045 364.071777,232.115921 364.071777,225.644226 
	C364.650970,225.380646 364.941193,225.135696 365.234497,225.131973 
	C369.895172,225.072739 374.556244,225.045868 379.217224,225.008362 
	C381.215118,224.992279 383.226196,225.109421 385.208313,224.922546 
	C391.375946,224.341034 395.697510,219.814651 395.590179,214.196594 
	C395.484497,208.667160 391.452057,204.153061 385.423065,203.904160 
	C375.947021,203.512955 366.447388,203.636612 356.957825,203.644897 
	C345.926239,203.654541 342.235962,207.343033 342.228302,218.281860 
	C342.210175,244.092545 342.203888,269.903290 342.254303,295.713898 
	C342.258820,298.021698 342.413849,300.409760 343.017242,302.618958 
	C344.233704,307.072632 347.355377,309.616302 351.977386,310.054016 
	C358.920288,310.711487 363.576691,305.950439 363.736084,297.767761 
	C363.901520,289.277832 363.688019,280.780426 363.862122,272.290863 
	C363.892761,270.796295 365.013977,269.324066 366.583710,267.791656 
M406.222198,273.499969 
	C406.423645,282.970490 406.242157,292.470886 406.976776,301.899841 
	C407.387146,307.166626 412.020386,310.231598 417.233093,310.132111 
	C422.220367,310.036896 426.108307,306.986664 427.106903,301.932434 
	C427.648895,299.189209 427.723816,296.325531 427.749817,293.513794 
	C427.827759,285.086273 427.777893,276.657562 427.777893,267.769165 
	C431.287598,267.769165 434.089020,267.875702 436.879822,267.748413 
	C444.122864,267.418030 448.897308,263.124054 448.927917,257.042175 
	C448.958405,250.981735 444.165070,246.600525 436.963989,246.254700 
	C434.043396,246.114441 431.110474,246.231537 428.183655,246.231537 
	C428.183655,238.740906 428.183655,232.033844 428.183655,225.009033 
	C431.892456,225.009033 435.201996,225.011856 438.511536,225.008240 
	C441.841553,225.004608 445.179932,225.143509 448.499969,224.957672 
	C456.512299,224.509247 461.228058,218.135590 458.978851,210.974060 
	C457.576904,206.510254 453.679565,203.815308 447.651550,203.701706 
	C438.663361,203.532303 429.669739,203.600006 420.678772,203.641266 
	C409.996521,203.690292 406.245331,207.435699 406.229889,218.057678 
	C406.203491,236.205063 406.222473,254.352509 406.222198,273.499969 
z"/>
<path fill="#FFFFFF" opacity="1.000000" stroke="none" 
	d="
M513.000000,240.531342 
	C511.326721,233.279449 510.081421,225.435440 507.896881,217.862381 
	C502.200134,198.113922 492.360107,180.639343 478.763031,165.116318 
	C468.012665,152.843201 455.626495,142.757996 441.393219,135.015289 
	C427.764893,127.601639 413.405792,121.602966 397.841919,120.140778 
	C383.160583,118.761513 368.360352,118.130417 353.609955,118.090614 
	C280.471863,117.893295 207.332458,117.854927 134.194702,118.108116 
	C116.961327,118.167778 100.411736,122.422722 84.487671,129.184647 
	C69.004730,135.759277 55.150616,144.876724 43.214817,156.516724 
	C28.706482,170.665512 16.764214,186.936661 10.221392,206.335068 
	C6.484351,217.414780 4.389684,229.048447 1.277764,240.716339 
	C1.000000,161.035278 1.000000,81.070541 1.000000,1.052907 
	C171.556137,1.052907 342.112305,1.052907 513.000000,1.052907 
	C513.000000,80.687256 513.000000,160.374969 513.000000,240.531342 
z"/>
<path fill="#FFFFFF" opacity="1.000000" stroke="none" 
	d="
M1.000000,273.468658 
	C2.673285,280.720551 3.918586,288.564575 6.103116,296.137665 
	C11.799797,315.886139 21.639906,333.360657 35.236973,348.883667 
	C45.987354,361.156769 58.373497,371.242004 72.606789,378.984680 
	C86.235138,386.398315 100.594246,392.396973 116.158066,393.859192 
	C130.839417,395.238556 145.639648,395.869751 160.390060,395.909515 
	C233.528137,396.106812 306.667572,396.145081 379.805298,395.891846 
	C397.038666,395.832184 413.588257,391.577301 429.512329,384.815338 
	C444.995270,378.240723 458.849396,369.123352 470.785217,357.483337 
	C485.293549,343.334534 497.235779,327.063385 503.778564,307.664948 
	C507.515594,296.585236 509.610291,284.951569 512.722229,273.283661 
	C513.000000,352.964691 513.000000,432.929413 513.000000,512.947021 
	C342.443970,512.947021 171.887894,512.947021 1.000000,512.947021 
	C1.000000,433.312744 1.000000,353.625031 1.000000,273.468658 
z"/>
<path fill="#F44336" opacity="1.000000" stroke="none" 
	d="
M115.297470,164.184143 
	C169.242142,150.765305 222.026550,183.579773 233.674881,237.431976 
	C245.350784,291.411652 207.195114,345.136993 152.281219,352.038788 
	C98.166840,358.840149 49.361092,320.299347 44.110363,266.618744 
	C39.528320,219.774445 68.914375,177.290161 115.297470,164.184143 
z"/>
<path fill="#465B65" opacity="1.000000" stroke="none" 
	d="
M311.750793,300.753357 
	C300.978668,310.593475 288.899780,313.091217 275.947693,307.330353 
	C262.918823,301.535309 257.027222,290.647583 257.003876,276.519989 
	C256.981354,262.862549 256.811066,249.201324 257.067719,235.548569 
	C257.339752,221.079727 266.283630,209.297302 279.572052,205.188904 
	C292.543060,201.178650 306.488342,205.746338 314.688293,216.751266 
	C318.906067,222.411835 320.929413,228.865952 320.970398,235.875854 
	C321.052216,249.866013 321.043488,263.857178 320.979279,277.847504 
	C320.939392,286.536713 317.943237,294.118713 311.750793,300.753357 
M282.828461,227.177734 
	C281.305969,230.186279 278.574341,233.153015 278.468628,236.210510 
	C277.991486,250.014282 278.060394,263.847748 278.340057,277.662262 
	C278.477997,284.476013 283.388092,289.092957 289.240967,288.928955 
	C294.967377,288.768494 299.529419,284.316864 299.660492,277.679871 
	C299.933289,263.865112 300.067261,250.030670 299.625214,236.224579 
	C299.329224,226.980698 292.031921,223.042084 282.828461,227.177734 
z"/>
<path fill="#485D66" opacity="1.000000" stroke="none" 
	d="
M366.107635,267.816589 
	C365.013977,269.324066 363.892761,270.796295 363.862122,272.290863 
	C363.688019,280.780426 363.901520,289.277832 363.736084,297.767761 
	C363.576691,305.950439 358.920288,310.711487 351.977386,310.054016 
	C347.355377,309.616302 344.233704,307.072632 343.017242,302.618958 
	C342.413849,300.409760 342.258820,298.021698 342.254303,295.713898 
	C342.203888,269.903290 342.210175,244.092545 342.228302,218.281860 
	C342.235962,207.343033 345.926239,203.654541 356.957825,203.644897 
	C366.447388,203.636612 375.947021,203.512955 385.423065,203.904160 
	C391.452057,204.153061 395.484497,208.667160 395.590179,214.196594 
	C395.697510,219.814651 391.375946,224.341034 385.208313,224.922546 
	C383.226196,225.109421 381.215118,224.992279 379.217224,225.008362 
	C374.556244,225.045868 369.895172,225.072739 365.234497,225.131973 
	C364.941193,225.135696 364.650970,225.380646 364.071777,225.644226 
	C364.071777,232.115921 364.071777,238.709045 364.071777,245.770248 
	C368.244446,246.124847 372.521088,246.190765 376.681183,246.920761 
	C381.371399,247.743774 384.684875,251.730713 384.859863,256.345306 
	C385.032867,260.906555 382.989716,264.491486 378.867004,266.446411 
	C376.984680,267.338959 374.703247,267.504456 372.574280,267.728790 
	C370.597168,267.937103 368.582092,267.785034 366.107635,267.816589 
z"/>
<path fill="#485D66" opacity="1.000000" stroke="none" 
	d="
M406.222290,272.999939 
	C406.222473,254.352509 406.203491,236.205063 406.229889,218.057678 
	C406.245331,207.435699 409.996521,203.690292 420.678772,203.641266 
	C429.669739,203.600006 438.663361,203.532303 447.651550,203.701706 
	C453.679565,203.815308 457.576904,206.510254 458.978851,210.974060 
	C461.228058,218.135590 456.512299,224.509247 448.499969,224.957672 
	C445.179932,225.143509 441.841553,225.004608 438.511536,225.008240 
	C435.201996,225.011856 431.892456,225.009033 428.183655,225.009033 
	C428.183655,232.033844 428.183655,238.740906 428.183655,246.231537 
	C431.110474,246.231537 434.043396,246.114441 436.963989,246.254700 
	C444.165070,246.600525 448.958405,250.981735 448.927917,257.042175 
	C448.897308,263.124054 444.122864,267.418030 436.879822,267.748413 
	C434.089020,267.875702 431.287598,267.769165 427.777893,267.769165 
	C427.777893,276.657562 427.827759,285.086273 427.749817,293.513794 
	C427.723816,296.325531 427.648895,299.189209 427.106903,301.932434 
	C426.108307,306.986664 422.220367,310.036896 417.233093,310.132111 
	C412.020386,310.231598 407.387146,307.166626 406.976776,301.899841 
	C406.242157,292.470886 406.423645,282.970490 406.222290,272.999939 
z"/>
<path fill="#CBD4D9" opacity="1.000000" stroke="none" 
	d="
M283.158997,226.981384 
	C292.031921,223.042084 299.329224,226.980698 299.625214,236.224579 
	C300.067261,250.030670 299.933289,263.865112 299.660492,277.679871 
	C299.529419,284.316864 294.967377,288.768494 289.240967,288.928955 
	C283.388092,289.092957 278.477997,284.476013 278.340057,277.662262 
	C278.060394,263.847748 277.991486,250.014282 278.468628,236.210510 
	C278.574341,233.153015 281.305969,230.186279 283.158997,226.981384 
z"/>
</svg>