<svg version="1.1" id="Layer_1" xmlns="http://www.w3.org/2000/svg" xmlns:xlink="http://www.w3.org/1999/xlink" x="0px" y="0px"
	 width="100%" viewBox="0 0 512 512" enable-background="new 0 0 512 512" xml:space="preserve">
<path fill="#CFD8DC" opacity="1.000000" stroke="none" 
	d="
M513.000000,241.000000 
	C513.000000,251.354233 513.000000,261.708466 512.722168,272.814941 
	C509.610168,284.951447 507.515442,296.585052 503.778442,307.664764 
	C497.235657,327.063202 485.293396,343.334320 470.785095,357.483093 
	C458.849304,369.123077 444.995178,378.240570 429.512268,384.815155 
	C413.588196,391.577026 397.038727,395.831879 379.805267,395.891479 
	C306.667572,396.144501 233.528168,396.106262 160.390106,395.908966 
	C145.639694,395.869171 130.839478,395.238281 116.158119,393.859039 
	C100.594284,392.396881 86.235168,386.398224 72.606857,378.984558 
	C58.373631,371.241791 45.987514,361.156555 35.237122,348.883484 
	C21.640041,333.360474 11.799999,315.885956 6.103275,296.137543 
	C3.918723,288.564484 2.673341,280.720520 1.000002,273.000000 
	C1.000000,262.645782 1.000000,252.291550 1.277817,241.185043 
	C4.389797,229.048553 6.484452,217.414917 10.221512,206.335251 
	C16.764374,186.936874 28.706509,170.665680 43.214867,156.516907 
	C55.150681,144.876923 69.004776,135.759476 84.487694,129.184830 
	C100.411743,122.422867 116.961327,118.167961 134.194702,118.108299 
	C207.332428,117.855118 280.471802,117.893486 353.609894,118.090797 
	C368.360291,118.130592 383.160522,118.761673 397.841858,120.140953 
	C413.405701,121.603142 427.764771,127.601807 441.393097,135.015457 
	C455.626373,142.758179 468.012482,152.843369 478.762878,165.116470 
	C492.359955,180.639481 502.199982,198.113998 507.896698,217.862442 
	C510.081268,225.435501 511.326630,233.279480 513.000000,241.000000 
M414.567993,169.919159 
	C404.068024,164.942825 392.964325,162.123718 381.428223,161.280029 
	C318.019135,156.642548 267.453033,214.190704 280.267365,276.308136 
	C291.317688,329.874573 344.958313,363.412689 398.060944,349.957092 
	C444.001801,338.316193 475.546539,293.418671 469.765625,246.944290 
	C465.394348,211.802231 446.962341,186.177124 414.567993,169.919159 
M235.772522,225.520325 
	C235.535446,220.877899 235.685944,216.172882 234.949387,211.611099 
	C234.250168,207.280655 231.086700,204.722183 226.713699,204.031937 
	C222.376205,203.347321 218.471451,204.635193 216.436584,208.532776 
	C215.045029,211.198212 214.397232,214.512085 214.323532,217.558014 
	C214.073639,227.884796 214.240143,238.221375 214.208389,248.554077 
	C214.204834,249.711227 213.950974,250.867599 213.694473,253.020828 
	C212.419998,250.523773 211.659454,249.055191 210.917770,247.577133 
	C204.720825,235.227509 198.605469,222.836060 192.297913,210.543228 
	C189.396332,204.888306 184.906342,202.805328 179.607925,204.133163 
	C174.870071,205.320526 171.827606,209.228806 171.810333,215.004135 
	C171.726578,243.002380 171.707138,271.001282 171.822723,298.999298 
	C171.850632,305.759186 176.101913,310.031464 182.128967,310.130096 
	C188.314575,310.231354 192.825729,305.791473 192.948273,298.909912 
	C193.135178,288.413727 193.002609,277.911865 193.005508,267.412415 
	C193.006027,265.540039 193.005585,263.667633 193.005585,261.795258 
	C196.220093,266.093353 198.479752,270.488525 200.693878,274.906555 
	C205.542068,284.580505 210.265625,294.318665 215.242966,303.925507 
	C217.870880,308.997650 222.277664,311.012054 227.223694,309.977173 
	C231.781693,309.023499 234.906586,305.371399 235.603485,299.999146 
	C235.816559,298.356659 235.765640,296.674591 235.766312,295.010620 
	C235.775406,272.178436 235.772354,249.346268 235.772522,225.520325 
M134.958450,305.572296 
	C144.549561,299.311371 149.996887,290.555237 150.124496,279.019836 
	C150.293961,263.700806 150.479767,248.363815 149.937378,233.060120 
	C149.370224,217.057648 135.680756,204.374985 119.420311,203.857346 
	C102.827789,203.329132 88.105675,215.143265 87.026031,231.412994 
	C85.969894,247.328415 85.496689,263.420929 86.595665,279.309235 
	C88.344826,304.597534 112.452415,317.571625 134.958450,305.572296 
z"/>
<path fill="#FFFFFF" opacity="1.000000" stroke="none" 
	d="
M513.000000,240.531342 
	C511.326630,233.279480 510.081268,225.435501 507.896698,217.862442 
	C502.199982,198.113998 492.359955,180.639481 478.762878,165.116470 
	C468.012482,152.843369 455.626373,142.758179 441.393097,135.015457 
	C427.764771,127.601807 413.405701,121.603142 397.841858,120.140953 
	C383.160522,118.761673 368.360291,118.130592 353.609894,118.090797 
	C280.471802,117.893486 207.332428,117.855118 134.194702,118.108299 
	C116.961327,118.167961 100.411743,122.422867 84.487694,129.184830 
	C69.004776,135.759476 55.150681,144.876923 43.214867,156.516907 
	C28.706509,170.665680 16.764374,186.936874 10.221512,206.335251 
	C6.484452,217.414917 4.389797,229.048553 1.277817,240.716385 
	C1.000000,161.035278 1.000000,81.070541 1.000000,1.052907 
	C171.556137,1.052907 342.112305,1.052907 513.000000,1.052907 
	C513.000000,80.687256 513.000000,160.374969 513.000000,240.531342 
z"/>
<path fill="#FFFFFF" opacity="1.000000" stroke="none" 
	d="
M1.000002,273.468658 
	C2.673341,280.720520 3.918723,288.564484 6.103275,296.137543 
	C11.799999,315.885956 21.640041,333.360474 35.237122,348.883484 
	C45.987514,361.156555 58.373631,371.241791 72.606857,378.984558 
	C86.235168,386.398224 100.594284,392.396881 116.158119,393.859039 
	C130.839478,395.238281 145.639694,395.869171 160.390106,395.908966 
	C233.528168,396.106262 306.667572,396.144501 379.805267,395.891479 
	C397.038727,395.831879 413.588196,391.577026 429.512268,384.815155 
	C444.995178,378.240570 458.849304,369.123077 470.785095,357.483093 
	C485.293396,343.334320 497.235657,327.063202 503.778442,307.664764 
	C507.515442,296.585052 509.610168,284.951447 512.722168,273.283630 
	C513.000000,352.964691 513.000000,432.929413 513.000000,512.947021 
	C342.443970,512.947021 171.887894,512.947021 1.000000,512.947021 
	C1.000000,433.312744 1.000000,353.625031 1.000002,273.468658 
z"/>
<path fill="#4CAF50" opacity="1.000000" stroke="none" 
	d="
M414.913666,170.066803 
	C446.962341,186.177124 465.394348,211.802231 469.765625,246.944290 
	C475.546539,293.418671 444.001801,338.316193 398.060944,349.957092 
	C344.958313,363.412689 291.317688,329.874573 280.267365,276.308136 
	C267.453033,214.190704 318.019135,156.642548 381.428223,161.280029 
	C392.964325,162.123718 404.068024,164.942825 414.913666,170.066803 
z"/>
<path fill="#475C66" opacity="1.000000" stroke="none" 
	d="
M235.772400,226.017212 
	C235.772354,249.346268 235.775406,272.178436 235.766312,295.010620 
	C235.765640,296.674591 235.816559,298.356659 235.603485,299.999146 
	C234.906586,305.371399 231.781693,309.023499 227.223694,309.977173 
	C222.277664,311.012054 217.870880,308.997650 215.242966,303.925507 
	C210.265625,294.318665 205.542068,284.580505 200.693878,274.906555 
	C198.479752,270.488525 196.220093,266.093353 193.005585,261.795258 
	C193.005585,263.667633 193.006027,265.540039 193.005508,267.412415 
	C193.002609,277.911865 193.135178,288.413727 192.948273,298.909912 
	C192.825729,305.791473 188.314575,310.231354 182.128967,310.130096 
	C176.101913,310.031464 171.850632,305.759186 171.822723,298.999298 
	C171.707138,271.001282 171.726578,243.002380 171.810333,215.004135 
	C171.827606,209.228806 174.870071,205.320526 179.607925,204.133163 
	C184.906342,202.805328 189.396332,204.888306 192.297913,210.543228 
	C198.605469,222.836060 204.720825,235.227509 210.917770,247.577133 
	C211.659454,249.055191 212.419998,250.523773 213.694473,253.020828 
	C213.950974,250.867599 214.204834,249.711227 214.208389,248.554077 
	C214.240143,238.221375 214.073639,227.884796 214.323532,217.558014 
	C214.397232,214.512085 215.045029,211.198212 216.436584,208.532776 
	C218.471451,204.635193 222.376205,203.347321 226.713699,204.031937 
	C231.086700,204.722183 234.250168,207.280655 234.949387,211.611099 
	C235.685944,216.172882 235.535446,220.877899 235.772400,226.017212 
z"/>
<path fill="#475C66" opacity="1.000000" stroke="none" 
	d="
M134.633667,305.748932 
	C112.452415,317.571625 88.344826,304.597534 86.595665,279.309235 
	C85.496689,263.420929 85.969894,247.328415 87.026031,231.412994 
	C88.105675,215.143265 102.827789,203.329132 119.420311,203.857346 
	C135.680756,204.374985 149.370224,217.057648 149.937378,233.060120 
	C150.479767,248.363815 150.293961,263.700806 150.124496,279.019836 
	C149.996887,290.555237 144.549561,299.311371 134.633667,305.748932 
M119.967514,288.698059 
	C126.476967,286.578308 128.920670,283.505249 128.967575,276.733429 
	C129.058502,263.606293 129.064041,250.477554 128.967499,237.350494 
	C128.912033,229.810822 124.435410,224.922745 118.076706,225.094452 
	C111.938164,225.260223 107.847328,230.002975 107.799049,237.371735 
	C107.713051,250.498932 107.699371,263.627716 107.804153,276.754669 
	C107.867157,284.647339 111.238251,288.083130 119.967514,288.698059 
z"/>
<path fill="#CED7DB" opacity="1.000000" stroke="none" 
	d="
M119.581863,288.774902 
	C111.238251,288.083130 107.867157,284.647339 107.804153,276.754669 
	C107.699371,263.627716 107.713051,250.498932 107.799049,237.371735 
	C107.847328,230.002975 111.938164,225.260223 118.076706,225.094452 
	C124.435410,224.922745 128.912033,229.810822 128.967499,237.350494 
	C129.064041,250.477554 129.058502,263.606293 128.967575,276.733429 
	C128.920670,283.505249 126.476967,286.578308 119.581863,288.774902 
z"/>
</svg>