<svg version="1.1" id="Layer_1" xmlns="http://www.w3.org/2000/svg" xmlns:xlink="http://www.w3.org/1999/xlink" x="0px" y="0px"
	 width="100%" viewBox="0 0 1024 1024" enable-background="new 0 0 1024 1024" xml:space="preserve">
<path fill="#000000" opacity="1.000000" stroke="none" 
	d="
M255.623779,258.565430 
	C285.603424,242.478714 317.111267,232.041031 350.429108,227.607132 
	C394.088745,221.796936 437.052216,224.870682 479.191498,238.553955 
	C541.640076,258.831970 591.350403,296.172394 628.807495,349.784027 
	C649.905945,379.981781 664.154175,413.311371 672.520264,449.312531 
	C678.650635,475.692932 680.409241,502.337494 679.135803,529.148682 
	C677.066223,572.723999 665.061707,613.641235 644.020935,651.911133 
	C628.709961,679.759521 609.338562,704.396484 585.938232,725.842285 
	C557.721863,751.701904 525.574280,771.061035 489.633820,784.346924 
	C452.319672,798.140625 413.786591,803.172791 374.289276,801.047302 
	C324.890472,798.388916 279.229065,783.590454 237.406555,757.143127 
	C196.171997,731.067566 163.628876,696.676819 139.694626,654.185120 
	C120.915298,620.845276 108.985786,585.173828 104.784660,547.123718 
	C96.432335,471.475800 114.756004,402.691437 159.598099,341.275726 
	C185.024078,306.452332 217.195938,279.060699 255.623779,258.565430 
M152.864120,628.647400 
	C176.181046,675.704468 210.144730,713.040344 255.128876,740.192993 
	C292.939789,763.015747 334.050781,775.438293 378.102325,777.630981 
	C403.313507,778.885864 428.290741,776.538269 452.912537,770.546692 
	C474.728577,765.237976 495.653534,757.591492 515.332092,746.871033 
	C568.257263,718.038391 607.614319,676.394714 632.668518,621.416443 
	C652.484985,577.931763 659.321472,532.247498 654.429810,484.977509 
	C650.562927,447.610352 639.338867,412.309662 619.861816,379.968292 
	C577.024231,308.837097 514.397339,266.058929 432.836304,251.681381 
	C396.673370,245.306580 360.430023,247.462967 324.816467,256.858490 
	C273.148071,270.489532 229.475464,297.320343 193.733612,337.020264 
	C172.560318,360.538300 156.196548,387.057373 144.710541,416.556030 
	C134.858292,441.858795 128.902451,467.993805 126.996101,495.148010 
	C125.659317,514.189087 126.242592,533.086792 129.116074,551.884827 
	C133.165039,578.372925 140.728653,603.844788 152.864120,628.647400 
z"/>
<path fill="#000000" opacity="1.000000" stroke="none" 
	d="
M917.461304,483.161499 
	C914.680237,488.256439 910.438416,490.134613 905.261658,490.136230 
	C840.459412,490.156250 775.657166,490.149994 710.854919,490.149536 
	C705.016541,490.149475 700.536865,487.886322 697.987061,482.411285 
	C695.451294,476.966461 697.101501,472.240875 700.856445,468.191681 
	C713.313354,454.758392 725.879150,441.425751 738.438538,428.087769 
	C756.593750,408.806915 774.788330,389.563202 792.949402,370.287872 
	C802.947449,359.676300 812.862854,359.627258 822.876892,370.266907 
	C853.354980,402.649139 883.811401,435.051788 914.274414,467.448212 
	C918.457947,471.897308 920.685425,476.781189 917.461304,483.161499 
z"/>
<path fill="#000000" opacity="1.000000" stroke="none" 
	d="
M804.693359,533.289673 
	C811.564758,532.153809 816.907776,534.359985 821.289917,539.013916 
	C851.994446,571.622559 882.680420,604.248718 913.351013,636.889221 
	C916.821716,640.582825 920.078308,644.495728 918.809998,650.109741 
	C917.307495,656.761108 912.404175,660.316345 904.836731,660.319214 
	C852.876526,660.338867 800.916260,660.333984 748.956055,660.336243 
	C736.299072,660.336792 723.641235,660.244446 710.985535,660.371765 
	C704.867554,660.433411 700.309998,658.314758 697.840515,652.481201 
	C695.411316,646.742737 697.489319,642.130615 701.414368,637.964722 
	C729.845154,607.788757 758.278381,577.615051 786.702454,547.432800 
	C789.213318,544.766602 791.666748,542.046387 794.142639,539.347412 
	C796.916565,536.323547 800.175354,534.129822 804.693359,533.289673 
z"/>
<path fill="#000000" opacity="1.000000" stroke="none" 
	d="
M601.483215,635.437134 
	C589.270569,655.872498 575.104919,674.344116 558.059570,690.452881 
	C543.349792,704.354553 527.147217,716.257935 508.891266,725.240540 
	C505.792999,726.765015 503.479187,726.585388 500.659271,724.625122 
	C462.774414,698.289673 424.822418,672.050781 386.895844,645.775269 
	C385.957428,645.125183 384.875885,644.560730 384.163696,641.972717 
	C462.417267,627.154358 540.552002,612.358521 620.136902,597.288086 
	C614.828613,611.499329 608.340332,623.355103 601.483215,635.437134 
z"/>
<path fill="#000000" opacity="1.000000" stroke="none" 
	d="
M479.497925,375.569397 
	C483.398895,392.805206 486.016449,409.832642 489.080963,426.781128 
	C488.653168,427.190186 488.225403,427.599274 487.797607,428.008331 
	C421.878326,383.409821 355.959045,338.811310 289.142914,293.606049 
	C296.559509,289.178406 303.509552,287.332336 310.205719,285.137482 
	C339.171875,275.642914 368.881866,270.107422 399.448212,270.960449 
	C419.291229,271.514191 438.782257,274.967834 457.728577,281.128815 
	C460.432953,282.008209 462.476440,283.309875 463.041809,286.388367 
	C468.476471,315.979462 473.955444,345.562408 479.497925,375.569397 
z"/>
<path fill="#000000" opacity="1.000000" stroke="none" 
	d="
M387.028473,374.929840 
	C390.177734,377.563232 393.824738,379.018585 397.232269,383.279419 
	C318.265015,398.236755 240.254440,413.012909 162.741425,427.694794 
	C160.977234,425.444672 161.846985,424.287476 162.357269,423.099457 
	C176.790314,389.496857 196.674667,359.592743 223.271576,334.388580 
	C237.590027,320.819885 253.427841,309.277710 271.240234,300.547424 
	C274.877838,298.764557 277.526642,299.098450 280.810120,301.383179 
	C316.061646,325.911957 351.412720,350.297638 387.028473,374.929840 
z"/>
<path fill="#000000" opacity="1.000000" stroke="none" 
	d="
M230.678711,543.717041 
	C240.192764,529.961060 249.505127,516.503052 258.817505,503.044983 
	C259.453644,503.169830 260.089783,503.294678 260.725922,503.419556 
	C275.493378,581.473328 290.260864,659.527100 304.963562,737.238525 
	C302.846588,739.018738 301.535034,737.866821 300.241974,737.300659 
	C262.793243,720.904419 229.776901,698.342590 203.309601,666.886353 
	C193.538681,655.273682 185.039017,642.745178 178.162720,629.125793 
	C176.095963,625.032349 176.235672,622.056702 178.893723,618.272400 
	C196.216309,593.609924 213.309052,568.786011 230.678711,543.717041 
z"/>
<path fill="#000000" opacity="1.000000" stroke="none" 
	d="
M626.480896,449.654846 
	C633.969482,477.091248 636.880127,504.560303 634.569580,532.550537 
	C633.251282,548.520935 630.832642,564.237610 625.441895,579.436584 
	C624.139404,583.108887 622.144104,584.684143 618.470947,585.365784 
	C576.618591,593.132019 534.793701,601.045654 492.942108,608.815979 
	C488.600494,609.622131 484.252472,610.799133 477.926300,610.577942 
	C523.148682,543.788696 567.699829,477.990845 613.029480,411.043213 
	C619.257446,424.233856 622.990845,436.687286 626.480896,449.654846 
z"/>
<path fill="#000000" opacity="1.000000" stroke="none" 
	d="
M361.255249,643.713806 
	C404.531006,673.004700 447.501160,702.104370 490.199280,731.019836 
	C490.044647,733.098755 488.968872,733.616638 487.876648,734.041687 
	C462.328156,743.984375 436.076691,750.897766 408.669403,753.405090 
	C388.131348,755.283875 367.738800,754.457947 347.536896,750.821106 
	C338.923340,749.270508 330.292511,747.171143 322.010925,744.044678 
	C319.444489,743.075745 318.076904,741.548645 317.565460,738.679443 
	C314.301208,720.366272 310.868622,702.082825 307.440460,683.799133 
	C302.417236,657.008728 297.356140,630.225403 292.291504,603.442749 
	C291.983643,601.814819 291.358154,600.216797 293.020264,597.617859 
	C315.681824,612.931885 338.315735,628.227295 361.255249,643.713806 
z"/>
<path fill="#000000" opacity="1.000000" stroke="none" 
	d="
M503.430359,299.554230 
	C542.761719,320.847168 574.992432,349.207581 597.862305,387.618683 
	C605.754944,400.874695 605.876892,400.864197 597.199524,413.426575 
	C573.068298,448.361694 548.898682,483.270325 524.715149,518.169250 
	C523.727844,519.594055 523.113342,521.535645 519.902893,521.896057 
	C505.152008,443.908356 490.398682,365.908020 475.401001,286.615631 
	C486.040802,290.154144 494.629730,294.637268 503.430359,299.554230 
z"/>
<path fill="#000000" opacity="1.000000" stroke="none" 
	d="
M200.127136,566.105469 
	C189.368103,582.053589 178.804855,597.702209 167.339828,614.686768 
	C164.196289,606.459778 161.311310,599.960938 159.215271,593.216919 
	C153.974838,576.355652 149.444565,559.284302 147.399475,541.697693 
	C145.028030,521.304565 144.667725,500.906219 147.389252,480.460907 
	C148.956924,468.683807 151.785751,457.281830 155.212494,445.954437 
	C156.342773,442.218231 158.545563,440.623444 162.184753,439.961487 
	C197.381927,433.558899 232.567810,427.093933 267.747040,420.593292 
	C277.074554,418.869690 286.366302,416.953156 295.678619,415.146362 
	C297.451630,414.802338 299.240173,414.258911 300.993225,414.990967 
	C301.974579,416.285156 301.199188,417.235321 300.548828,418.194855 
	C267.833649,466.460846 235.117416,514.726135 202.395264,562.987427 
	C201.741318,563.951904 201.015335,564.867493 200.127136,566.105469 
z"/>
</svg>